<svg width="737" height="17" fill="none" xmlns="http://www.w3.org/2000/svg"><path d="M739 17c-5.783 0-8.804-3.4-11.246-6.135-2.185-2.439-3.791-4.213-7.197-4.213-3.47 0-5.012 1.774-7.197 4.213C710.918 13.6 707.898 17 702.114 17c-5.783 0-8.803-3.4-11.245-6.135-2.185-2.439-3.792-4.213-7.198-4.213-3.405 0-5.012 1.774-7.197 4.213C674.032 13.6 671.012 17 665.228 17c-5.783 0-8.803-3.4-11.245-6.135-2.185-2.439-3.792-4.213-7.197-4.213-3.47 0-5.013 1.774-7.198 4.213C637.147 13.6 634.126 17 628.343 17c-5.784 0-8.804-3.4-11.246-6.135-2.185-2.439-3.791-4.213-7.197-4.213-3.47 0-5.012 1.774-7.197 4.213C600.004 13.6 596.983 17 591.2 17s-8.804-3.4-11.246-6.135c-2.185-2.439-3.791-4.213-7.197-4.213-3.47 0-5.012 1.774-7.197 4.213C563.118 13.6 560.098 17 554.314 17c-5.783 0-8.803-3.4-11.245-6.135-2.185-2.439-3.792-4.213-7.198-4.213-3.47 0-5.012 1.774-7.197 4.213C526.104 13.6 523.083 17 517.3 17s-8.804-3.4-11.246-6.135c-2.185-2.439-3.791-4.213-7.197-4.213-3.47 0-5.012 1.774-7.197 4.213C489.218 13.6 486.198 17 480.414 17c-5.783 0-8.803-3.4-11.245-6.135-2.185-2.439-3.792-4.213-7.198-4.213-3.405 0-5.012 1.774-7.197 4.213C452.268 13.6 449.183 17 443.4 17s-8.804-3.4-11.246-6.135c-2.185-2.439-3.791-4.213-7.197-4.213-3.47 0-5.012 1.774-7.197 4.213C415.318 13.6 412.298 17 406.514 17c-5.783 0-8.803-3.4-11.245-6.135-2.185-2.439-3.792-4.213-7.198-4.213-3.47 0-5.012 1.774-7.197 4.213C378.432 13.6 375.412 17 369.629 17c-5.784 0-8.804-3.4-11.246-6.135-2.185-2.439-3.792-4.213-7.197-4.213-3.406 0-5.013 1.774-7.198 4.213C341.547 13.6 338.526 17 332.743 17c-5.784 0-8.804-3.4-11.246-6.135-2.185-2.439-3.791-4.213-7.197-4.213-3.47 0-5.012 1.774-7.197 4.213C304.661 13.6 301.641 17 295.857 17c-5.783 0-8.804-3.4-11.246-6.135-2.184-2.439-3.791-4.213-7.197-4.213-3.47 0-5.012 1.774-7.197 4.213C267.775 13.6 264.755 17 258.971 17c-5.783 0-8.803-3.4-11.245-6.135-2.185-2.439-3.792-4.213-7.198-4.213-3.47 0-5.012 1.774-7.197 4.213C230.889 13.6 227.869 17 222.086 17c-5.784 0-8.804-3.4-11.246-6.135-2.185-2.439-3.791-4.213-7.197-4.213s-5.013 1.774-7.198 4.213C194.004 13.6 190.983 17 185.2 17c-5.784 0-8.804-3.4-11.246-6.135-2.185-2.439-3.791-4.213-7.197-4.213-3.47 0-5.012 1.774-7.197 4.213C157.118 13.6 154.098 17 148.314 17c-5.783 0-8.804-3.4-11.246-6.135-2.184-2.439-3.791-4.213-7.197-4.213-3.47 0-5.012 1.774-7.197 4.213C120.232 13.6 117.212 17 111.428 17c-5.783 0-8.803-3.4-11.245-6.135-2.185-2.439-3.792-4.213-7.198-4.213-3.47 0-5.012 1.774-7.197 4.213C82.768 13.6 79.683 17 73.9 17c-5.784 0-8.804-3.4-11.246-6.135-2.185-2.439-3.791-4.213-7.197-4.213-3.47 0-5.012 1.774-7.197 4.213C45.818 13.6 42.798 17 37.014 17c-5.783 0-8.804-3.4-11.245-6.135-2.25-2.439-3.856-4.213-7.262-4.213-3.47 0-5.012 1.774-7.197 4.213C8.804 13.6 5.783 17 0 17v-6.652c3.47 0 5.012-1.774 7.197-4.213C9.64 3.4 12.66 0 18.507 0c5.784 0 8.804 3.4 11.246 6.135 2.185 2.439 3.791 4.213 7.197 4.213 3.47 0 5.012-1.774 7.197-4.213C46.59 3.4 49.674 0 55.457 0c5.784 0 8.804 3.4 11.246 6.135 2.185 2.439 3.791 4.213 7.197 4.213 3.47 0 5.012-1.774 7.197-4.213C83.54 3.4 86.56 0 92.343 0c5.783 0 8.804 3.4 11.246 6.135 2.184 2.439 3.791 4.213 7.197 4.213 3.47 0 5.012-1.774 7.197-4.213C120.425 3.4 123.445 0 129.229 0c5.783 0 8.803 3.4 11.245 6.135 2.185 2.439 3.792 4.213 7.197 4.213 3.471 0 5.013-1.774 7.198-4.213C157.311 3.4 160.331 0 166.114 0c5.784 0 8.804 3.4 11.246 6.135 2.185 2.439 3.791 4.213 7.197 4.213 3.47 0 5.013-1.774 7.197-4.213C194.196 3.4 197.217 0 203 0c5.784 0 8.804 3.4 11.246 6.135 2.185 2.439 3.791 4.213 7.197 4.213 3.47 0 5.012-1.774 7.197-4.213C231.082 3.4 234.102 0 239.886 0c5.783 0 8.804 3.4 11.245 6.135 2.185 2.439 3.792 4.213 7.198 4.213 3.406 0 5.012-1.774 7.197-4.213C267.968 3.4 270.988 0 276.772 0c5.783 0 8.803 3.4 11.245 6.135 2.185 2.439 3.792 4.213 7.197 4.213 3.471 0 5.013-1.774 7.198-4.213C304.854 3.4 307.874 0 313.657 0c5.784 0 8.804 3.4 11.246 6.135 2.185 2.439 3.791 4.213 7.197 4.213 3.47 0 5.013-1.774 7.197-4.213C341.739 3.4 344.76 0 350.543 0c5.784 0 8.804 3.4 11.246 6.135 2.185 2.439 3.791 4.213 7.197 4.213 3.47 0 5.012-1.774 7.197-4.213C378.625 3.4 381.645 0 387.429 0c5.783 0 8.804 3.4 11.245 6.135 2.185 2.439 3.792 4.213 7.198 4.213 3.47 0 5.012-1.774 7.197-4.213C415.511 3.4 418.531 0 424.315 0c5.783 0 8.803 3.4 11.245 6.135 2.185 2.439 3.792 4.213 7.197 4.213 3.47 0 5.013-1.774 7.198-4.213C452.397 3.4 455.417 0 461.2 0c5.784 0 8.804 3.4 11.246 6.135 2.185 2.439 3.791 4.213 7.197 4.213 3.47 0 5.012-1.774 7.197-4.213C489.282 3.4 492.303 0 498.086 0s8.804 3.4 11.246 6.135c2.185 2.439 3.791 4.213 7.197 4.213 3.47 0 5.012-1.774 7.197-4.213C526.939 3.4 529.959 0 535.807 0c5.784 0 8.804 3.4 11.246 6.135 2.185 2.439 3.791 4.213 7.197 4.213s5.012-1.774 7.197-4.213C563.889 3.4 566.909 0 572.693 0c5.783 0 8.804 3.4 11.246 6.135 2.184 2.439 3.791 4.213 7.197 4.213s5.012-1.774 7.197-4.213C600.839 3.4 603.859 0 609.707 0c5.848 0 8.804 3.4 11.246 6.135 2.185 2.439 3.791 4.213 7.197 4.213s5.012-1.774 7.197-4.213C637.789 3.4 640.809 0 646.593 0c5.783 0 8.804 3.4 11.246 6.135 2.184 2.439 3.791 4.213 7.197 4.213 3.47 0 5.012-1.774 7.197-4.213C674.675 3.4 677.695 0 683.479 0c5.783 0 8.803 3.4 11.245 6.135 2.185 2.439 3.792 4.213 7.198 4.213 3.405 0 5.012-1.774 7.197-4.213C711.561 3.4 714.581 0 720.364 0c5.784 0 8.804 3.4 11.246 6.135 2.185 2.439 3.791 4.213 7.197 4.213V17H739Z" fill="#F1F1F1"/></svg>