<?xml version="1.0" encoding="utf-8"?>
<!-- Generator: Adobe Illustrator 23.0.2, SVG Export Plug-In . SVG Version: 6.00 Build 0)  -->
<svg version="1.1" id="Layer_1" xmlns="http://www.w3.org/2000/svg" xmlns:xlink="http://www.w3.org/1999/xlink" x="0px" y="0px"
	 viewBox="0 0 1250 34" style="enable-background:new 0 0 1250 34;" xml:space="preserve">
<style type="text/css">
	.st0{fill:#FFFFFF;}
</style>
<path class="st0" d="M1218.8,0c-15.7,0-15.7,14-31.2,14S1172,0,1156.4,0c-15.5,0-15.7,14-31.2,14c-15.7,0-15.7-14-31.3-14
	c-15.7,0-15.7,14-31.2,14c-15.7,0-15.7-14-31.2-14c-15.7,0-15.7,14-31.2,14c-15.5,0-16-14-31.5-14c-15.7,0-15.7,14-31.2,14
	c-15.5,0-15.8-14-31.3-14c-15.7,0-15.7,14-31.2,14c-15.7,0-15.7-14-31.3-14c-15.7,0-15.7,14-31.2,14C797,14,797,0,781.4,0
	c-15.5,0-15.8,14-31.4,14S734.3,0,718.8,0c-15.7,0-15.7,14-31.2,14C672,14,672,0,656.3,0c-15.7,0-15.7,14-31.2,14
	c-15.7,0-15.7-14-31.2-14c-15.7,0-15.7,14-31.2,14c-15.7,0-15.7-14-31.2-14c-15.7,0-15.7,14-31.3,14c-15.7,0-15.7-14-31.3-14
	s-15.7,14-31.3,14C422,14,422,0,406.3,0c-15.7,0-15.7,14-31.3,14S359.3,0,343.7,0C328,0,328,14,312.4,14c-15.7,0-15.7-14-31.3-14
	s-15.7,14-31.2,14c-15.7,0-15.7-14-31.3-14s-15.7,14-31.3,14C171.6,14,171.6,0,156,0c-15.7,0-15.7,14-31.3,14S109,0,93.4,0
	C78.2,0,78.2,14,62.5,14C46.8,14,46.8,0,31.3,0C15.8,0,15.7,14,0,14v20h1250V14C1234.3,14,1234.3,0,1218.8,0z"/>
</svg>
