<svg width="737" height="17" viewBox="0 0 737 17" fill="none" xmlns="http://www.w3.org/2000/svg">
<path d="M739 17C733.217 17 730.196 13.6 727.754 10.8652C725.569 8.42609 723.963 6.65217 720.557 6.65217C717.087 6.65217 715.545 8.42609 713.36 10.8652C710.918 13.6 707.898 17 702.114 17C696.331 17 693.311 13.6 690.869 10.8652C688.684 8.42609 687.077 6.65217 683.671 6.65217C680.266 6.65217 678.659 8.42609 676.474 10.8652C674.032 13.6 671.012 17 665.228 17C659.445 17 656.425 13.6 653.983 10.8652C651.798 8.42609 650.191 6.65217 646.786 6.65217C643.316 6.65217 641.773 8.42609 639.588 10.8652C637.147 13.6 634.126 17 628.343 17C622.559 17 619.539 13.6 617.097 10.8652C614.912 8.42609 613.306 6.65217 609.9 6.65217C606.43 6.65217 604.888 8.42609 602.703 10.8652C600.004 13.6 596.983 17 591.2 17C585.417 17 582.396 13.6 579.954 10.8652C577.769 8.42609 576.163 6.65217 572.757 6.65217C569.287 6.65217 567.745 8.42609 565.56 10.8652C563.118 13.6 560.098 17 554.314 17C548.531 17 545.511 13.6 543.069 10.8652C540.884 8.42609 539.277 6.65217 535.871 6.65217C532.401 6.65217 530.859 8.42609 528.674 10.8652C526.104 13.6 523.083 17 517.3 17C511.517 17 508.496 13.6 506.054 10.8652C503.869 8.42609 502.263 6.65217 498.857 6.65217C495.387 6.65217 493.845 8.42609 491.66 10.8652C489.218 13.6 486.198 17 480.414 17C474.631 17 471.611 13.6 469.169 10.8652C466.984 8.42609 465.377 6.65217 461.971 6.65217C458.566 6.65217 456.959 8.42609 454.774 10.8652C452.268 13.6 449.183 17 443.4 17C437.617 17 434.596 13.6 432.154 10.8652C429.969 8.42609 428.363 6.65217 424.957 6.65217C421.487 6.65217 419.945 8.42609 417.76 10.8652C415.318 13.6 412.298 17 406.514 17C400.731 17 397.711 13.6 395.269 10.8652C393.084 8.42609 391.477 6.65217 388.071 6.65217C384.601 6.65217 383.059 8.42609 380.874 10.8652C378.432 13.6 375.412 17 369.629 17C363.845 17 360.825 13.6 358.383 10.8652C356.198 8.42609 354.591 6.65217 351.186 6.65217C347.78 6.65217 346.173 8.42609 343.988 10.8652C341.547 13.6 338.526 17 332.743 17C326.959 17 323.939 13.6 321.497 10.8652C319.312 8.42609 317.706 6.65217 314.3 6.65217C310.83 6.65217 309.288 8.42609 307.103 10.8652C304.661 13.6 301.641 17 295.857 17C290.074 17 287.053 13.6 284.611 10.8652C282.427 8.42609 280.82 6.65217 277.414 6.65217C273.944 6.65217 272.402 8.42609 270.217 10.8652C267.775 13.6 264.755 17 258.971 17C253.188 17 250.168 13.6 247.726 10.8652C245.541 8.42609 243.934 6.65217 240.528 6.65217C237.058 6.65217 235.516 8.42609 233.331 10.8652C230.889 13.6 227.869 17 222.086 17C216.302 17 213.282 13.6 210.84 10.8652C208.655 8.42609 207.049 6.65217 203.643 6.65217C200.237 6.65217 198.63 8.42609 196.445 10.8652C194.004 13.6 190.983 17 185.2 17C179.416 17 176.396 13.6 173.954 10.8652C171.769 8.42609 170.163 6.65217 166.757 6.65217C163.287 6.65217 161.745 8.42609 159.56 10.8652C157.118 13.6 154.098 17 148.314 17C142.531 17 139.51 13.6 137.068 10.8652C134.884 8.42609 133.277 6.65217 129.871 6.65217C126.401 6.65217 124.859 8.42609 122.674 10.8652C120.232 13.6 117.212 17 111.428 17C105.645 17 102.625 13.6 100.183 10.8652C97.9978 8.42609 96.3913 6.65217 92.9855 6.65217C89.5154 6.65217 87.9731 8.42609 85.7883 10.8652C82.768 13.6 79.6835 17 73.9 17C68.1165 17 65.0963 13.6 62.6543 10.8652C60.4695 8.42609 58.863 6.65217 55.4571 6.65217C51.987 6.65217 50.4448 8.42609 48.2599 10.8652C45.818 13.6 42.7977 17 37.0143 17C31.2308 17 28.2105 13.6 25.7686 10.8652C23.5195 8.42609 21.913 6.65217 18.5071 6.65217C15.037 6.65217 13.4948 8.42609 11.3099 10.8652C8.80374 13.6 5.78348 17 0 17V10.3478C3.47009 10.3478 5.01235 8.57391 7.19722 6.13478C9.63913 3.4 12.6594 0 18.5071 0C24.2906 0 27.3109 3.4 29.7528 6.13478C31.9377 8.57391 33.5442 10.3478 36.95 10.3478C40.4201 10.3478 41.9623 8.57391 44.1472 6.13478C46.5891 3.4 49.6737 0 55.4571 0C61.2406 0 64.2609 3.4 66.7028 6.13478C68.8877 8.57391 70.4942 10.3478 73.9 10.3478C77.3701 10.3478 78.9123 8.57391 81.0972 6.13478C83.5391 3.4 86.5594 0 92.3429 0C98.1263 0 101.147 3.4 103.589 6.13478C105.773 8.57391 107.38 10.3478 110.786 10.3478C114.256 10.3478 115.798 8.57391 117.983 6.13478C120.425 3.4 123.445 0 129.229 0C135.012 0 138.032 3.4 140.474 6.13478C142.659 8.57391 144.266 10.3478 147.671 10.3478C151.142 10.3478 152.684 8.57391 154.869 6.13478C157.311 3.4 160.331 0 166.114 0C171.898 0 174.918 3.4 177.36 6.13478C179.545 8.57391 181.151 10.3478 184.557 10.3478C188.027 10.3478 189.57 8.57391 191.754 6.13478C194.196 3.4 197.217 0 203 0C208.784 0 211.804 3.4 214.246 6.13478C216.431 8.57391 218.037 10.3478 221.443 10.3478C224.913 10.3478 226.455 8.57391 228.64 6.13478C231.082 3.4 234.102 0 239.886 0C245.669 0 248.69 3.4 251.131 6.13478C253.316 8.57391 254.923 10.3478 258.329 10.3478C261.735 10.3478 263.341 8.57391 265.526 6.13478C267.968 3.4 270.988 0 276.772 0C282.555 0 285.575 3.4 288.017 6.13478C290.202 8.57391 291.809 10.3478 295.214 10.3478C298.685 10.3478 300.227 8.57391 302.412 6.13478C304.854 3.4 307.874 0 313.657 0C319.441 0 322.461 3.4 324.903 6.13478C327.088 8.57391 328.694 10.3478 332.1 10.3478C335.57 10.3478 337.113 8.57391 339.297 6.13478C341.739 3.4 344.76 0 350.543 0C356.327 0 359.347 3.4 361.789 6.13478C363.974 8.57391 365.58 10.3478 368.986 10.3478C372.456 10.3478 373.998 8.57391 376.183 6.13478C378.625 3.4 381.645 0 387.429 0C393.212 0 396.233 3.4 398.674 6.13478C400.859 8.57391 402.466 10.3478 405.872 10.3478C409.342 10.3478 410.884 8.57391 413.069 6.13478C415.511 3.4 418.531 0 424.315 0C430.098 0 433.118 3.4 435.56 6.13478C437.745 8.57391 439.352 10.3478 442.757 10.3478C446.227 10.3478 447.77 8.57391 449.955 6.13478C452.397 3.4 455.417 0 461.2 0C466.984 0 470.004 3.4 472.446 6.13478C474.631 8.57391 476.237 10.3478 479.643 10.3478C483.113 10.3478 484.655 8.57391 486.84 6.13478C489.282 3.4 492.303 0 498.086 0C503.869 0 506.89 3.4 509.332 6.13478C511.517 8.57391 513.123 10.3478 516.529 10.3478C519.999 10.3478 521.541 8.57391 523.726 6.13478C526.939 3.4 529.959 0 535.807 0C541.591 0 544.611 3.4 547.053 6.13478C549.238 8.57391 550.844 10.3478 554.25 10.3478C557.656 10.3478 559.262 8.57391 561.447 6.13478C563.889 3.4 566.909 0 572.693 0C578.476 0 581.497 3.4 583.939 6.13478C586.123 8.57391 587.73 10.3478 591.136 10.3478C594.542 10.3478 596.148 8.57391 598.333 6.13478C600.839 3.4 603.859 0 609.707 0C615.555 0 618.511 3.4 620.953 6.13478C623.138 8.57391 624.744 10.3478 628.15 10.3478C631.556 10.3478 633.162 8.57391 635.347 6.13478C637.789 3.4 640.809 0 646.593 0C652.376 0 655.397 3.4 657.839 6.13478C660.023 8.57391 661.63 10.3478 665.036 10.3478C668.506 10.3478 670.048 8.57391 672.233 6.13478C674.675 3.4 677.695 0 683.479 0C689.262 0 692.282 3.4 694.724 6.13478C696.909 8.57391 698.516 10.3478 701.922 10.3478C705.327 10.3478 706.934 8.57391 709.119 6.13478C711.561 3.4 714.581 0 720.364 0C726.148 0 729.168 3.4 731.61 6.13478C733.795 8.57391 735.401 10.3478 738.807 10.3478V17H739Z" fill="#F1F1F1"/>
</svg>
